<?xml version="1.0" standalone="no"?>
<!DOCTYPE svg PUBLIC "-//W3C//DTD SVG 20010904//EN"
 "http://www.w3.org/TR/2001/REC-SVG-20010904/DTD/svg10.dtd">
<svg version="1.0" xmlns="http://www.w3.org/2000/svg"
 width="500.000000pt" height="500.000000pt" viewBox="0 0 500.000000 500.000000"
 preserveAspectRatio="xMidYMid meet">
<metadata>
Created by potrace 1.14, written by Peter Selinger 2001-2017
</metadata>
<g transform="translate(0.000000,500.000000) scale(0.100000,-0.100000)"
fill="#000000" stroke="none">
<path d="M0 2500 l0 -2500 2500 0 2500 0 0 2500 0 2500 -2500 0 -2500 0 0
-2500z m2641 1644 c156 -46 280 -153 376 -322 52 -93 89 -219 107 -368 24
-197 77 -341 226 -612 25 -45 40 -86 40 -107 0 -41 -107 -258 -178 -361 -26
-37 -69 -85 -96 -106 -60 -44 -244 -154 -459 -273 l-157 -87 -143 78 c-235
128 -457 264 -503 306 -52 47 -100 122 -184 283 -57 110 -62 123 -58 170 3 36
15 69 41 111 117 193 199 406 217 566 20 172 54 274 133 395 106 163 276 300
415 332 61 15 165 12 223 -5z m-1162 -40 c35 -44 21 -103 -29 -124 -56 -23
-110 14 -110 77 0 70 96 102 139 47z m2158 4 c44 -41 22 -120 -36 -133 -77
-17 -129 67 -80 129 27 34 82 36 116 4z m-2037 -168 l75 -68 -40 -35 c-51 -45
-73 -31 -27 16 45 47 40 59 -6 14 -21 -21 -41 -34 -45 -31 -10 11 -9 21 6 36
46 50 50 61 12 30 -50 -40 -73 -27 -30 18 16 16 24 30 19 30 -6 0 -21 -11 -34
-25 -34 -36 -49 -16 -19 26 l23 32 -32 -23 c-17 -13 -35 -20 -39 -17 -6 7 45
67 56 67 3 -1 40 -32 81 -70z m1911 41 c36 -36 19 -54 -18 -20 -26 24 -23 9 5
-23 22 -26 4 -43 -22 -20 -37 34 -52 36 -22 3 43 -46 21 -60 -29 -19 -38 31
-35 20 8 -29 11 -12 16 -27 12 -33 -5 -8 -20 1 -46 26 -47 46 -53 34 -7 -13
46 -47 24 -61 -27 -17 l-40 35 75 69 c41 39 76 70 78 70 2 0 17 -13 33 -29z
m-1742 -277 l-184 -184 -25 25 -25 25 184 184 183 183 25 -25 25 -25 -183
-183z m1512 51 c96 -96 175 -179 177 -183 1 -5 -8 -18 -21 -30 l-23 -21 -184
184 -184 184 25 20 c13 11 27 20 30 21 3 0 84 -79 180 -175z m-1583 18 c-55
-56 -77 -41 -25 17 49 54 47 64 -3 15 -27 -26 -43 -36 -50 -29 -7 7 2 24 26
53 l37 42 28 -27 29 -28 -42 -43z m1681 2 c-6 -5 -24 5 -49 30 -50 49 -53 34
-3 -17 29 -30 34 -41 25 -50 -10 -10 -21 -3 -54 30 l-42 42 29 30 30 31 37
-43 c23 -27 33 -47 27 -53z m-1456 -8 c13 -20 13 -26 0 -51 -29 -56 -53 -140
-64 -229 l-12 -89 -83 83 c-46 46 -84 88 -84 94 0 14 202 215 216 215 7 0 18
-10 27 -23z m1296 -81 l104 -104 -83 -91 c-46 -50 -85 -90 -86 -88 -2 1 -8 45
-14 97 -7 52 -24 133 -40 180 -28 84 -27 110 4 110 6 0 58 -47 115 -104z
m-1424 -1360 c23 -28 64 -67 93 -86 l52 -35 -33 -27 c-74 -62 -365 -203 -383
-185 -16 16 109 287 172 372 34 45 38 48 48 31 6 -11 29 -42 51 -70z m1518 22
c69 -98 180 -338 164 -355 -17 -16 -280 107 -372 174 l-49 36 24 16 c68 45
109 82 144 134 22 31 41 57 42 57 2 0 23 -28 47 -62z m-1721 -444 c29 -9 59
-21 67 -28 20 -16 91 -113 91 -124 0 -5 6 -14 13 -20 18 -15 39 4 64 58 12 25
34 57 50 72 53 51 90 59 277 61 94 1 188 -2 208 -6 33 -7 39 -12 49 -50 6 -23
9 -64 5 -92 -4 -41 -11 -55 -41 -81 -33 -29 -35 -34 -24 -58 7 -14 18 -26 25
-26 7 0 29 -13 47 -30 19 -16 37 -27 41 -23 3 4 3 -7 0 -24 -3 -18 -1 -33 5
-37 7 -5 9 -1 5 9 -4 11 -2 14 9 9 22 -8 26 5 31 87 9 167 27 294 44 307 10 8
50 12 112 12 61 0 102 -5 113 -12 13 -10 18 -43 27 -153 5 -77 10 -169 10
-205 0 -67 16 -100 51 -113 18 -6 30 13 49 76 6 20 20 42 30 47 10 6 55 10
100 10 86 0 135 -17 145 -51 10 -30 34 -30 50 0 13 27 32 186 34 291 1 73 10
99 36 106 13 3 113 6 222 7 225 2 273 -6 321 -57 42 -44 56 -96 54 -208 0 -79
3 -102 17 -120 46 -59 51 -82 51 -230 0 -79 -4 -149 -9 -157 -18 -28 -200 -37
-241 -11 -6 4 -15 38 -20 76 -5 38 -12 77 -15 86 -9 24 -71 33 -100 14 -25
-17 -27 -20 -45 -113 -8 -39 -18 -64 -29 -68 -30 -12 -156 -17 -191 -8 -30 8
-37 16 -55 64 -11 30 -24 60 -28 66 -15 23 -34 2 -52 -57 -15 -50 -23 -61 -48
-70 -45 -15 -545 -13 -577 3 -20 10 -27 25 -36 69 -21 103 -26 107 -76 51
-115 -128 -131 -133 -377 -132 -97 1 -189 4 -206 8 -36 8 -51 37 -58 110 -6
68 4 98 40 114 32 13 52 35 53 55 0 12 -55 72 -66 72 -2 0 -14 10 -26 22 -17
17 -23 19 -26 7 -3 -8 -9 -17 -14 -20 -5 -3 -16 -48 -24 -99 -24 -150 -54
-199 -149 -241 -44 -19 -72 -23 -237 -27 -229 -5 -293 1 -310 31 -9 16 -13
103 -15 297 -3 280 3 428 18 452 18 29 432 31 531 2z m453 -1092 c2 -7 0 -24
-6 -39 -6 -18 -6 -30 0 -36 7 -7 6 -16 -3 -26 -7 -9 -18 -29 -23 -46 -9 -29
-12 -30 -76 -33 -56 -2 -70 1 -87 18 -37 37 -19 128 32 164 27 19 155 18 163
-2z m209 -1 c17 -18 17 -23 -1 -100 l-18 -80 -97 0 c-54 1 -98 4 -98 9 0 4 7
13 16 21 9 7 31 43 50 80 18 37 42 72 51 78 29 17 78 13 97 -8z m163 -21 c9
-22 19 -40 23 -40 4 0 23 18 43 40 29 32 42 40 71 40 38 0 54 -14 38 -33 -6
-7 -18 -47 -29 -89 l-18 -78 -46 0 c-51 0 -64 7 -48 27 18 21 -6 15 -26 -7
-24 -27 -39 -25 -61 8 l-18 27 -6 -25 c-4 -18 -14 -26 -33 -28 -32 -4 -32 -4
-7 72 11 33 20 71 20 86 0 35 6 40 47 40 31 0 36 -4 50 -40z m318 30 c4 -6 2
-16 -3 -23 -5 -7 -18 -47 -28 -89 l-19 -78 -47 0 c-27 0 -48 2 -48 5 0 2 11
39 25 81 14 42 25 85 25 95 0 16 8 19 44 19 25 0 48 -5 51 -10z m135 -20 c23
-33 43 -31 38 3 -2 18 3 23 30 25 37 4 37 2 16 -64 -39 -123 -45 -134 -69
-134 -16 0 -30 11 -45 35 -12 19 -26 35 -31 35 -8 0 -10 -8 -13 -50 -1 -21
-66 -27 -66 -6 0 8 4 17 8 20 8 5 34 101 38 136 0 8 2 18 3 23 0 4 16 7 35 7
27 0 39 -7 56 -30z m327 15 c2 -7 -1 -24 -7 -40 -7 -19 -7 -32 -1 -38 7 -7 7
-15 -2 -25 -6 -8 -16 -29 -22 -46 -10 -30 -12 -31 -78 -33 -56 -3 -70 0 -87
17 -37 37 -19 128 32 164 26 18 158 19 165 1z m-897 -400 c0 -14 4 -25 8 -25
5 0 19 11 32 25 26 27 49 32 68 13 23 -23 14 -47 -20 -56 -40 -10 -80 -65 -76
-102 3 -24 0 -25 -51 -28 -52 -3 -53 -2 -46 20 17 54 16 78 -3 121 -11 25 -18
48 -14 51 3 3 27 6 54 6 45 0 48 -2 48 -25z m355 15 c9 -15 -5 -58 -22 -64 -9
-4 -22 -1 -30 5 -7 7 -15 10 -17 8 -8 -9 -36 -104 -36 -121 0 -15 -8 -18 -51
-18 -45 0 -50 2 -44 18 4 9 13 38 20 65 l13 47 -26 -2 c-22 -2 -28 2 -30 20
-6 44 13 52 119 52 54 0 100 -4 104 -10z m212 -7 c6 -17 -25 -73 -40 -73 -7 0
-18 10 -26 22 l-14 22 -18 -23 c-22 -27 -26 -81 -5 -81 7 0 19 7 26 15 16 19
29 19 37 -1 3 -8 -4 -25 -17 -40 -30 -31 -86 -33 -124 -3 -21 17 -26 28 -26
67 0 49 18 80 55 100 26 14 147 10 152 -5z"/>
<path d="M2457 4110 c-132 -23 -302 -149 -404 -300 -79 -117 -118 -223 -133
-365 -21 -182 -78 -345 -195 -556 -82 -147 -83 -159 -14 -294 88 -172 144
-251 213 -299 63 -45 266 -165 463 -275 l113 -63 137 78 c263 147 445 259 485
299 74 75 218 341 218 405 0 22 -13 56 -36 95 -52 86 -127 239 -157 320 -41
112 -56 176 -67 280 -15 144 -35 219 -89 330 -55 112 -145 220 -230 274 -93
60 -209 87 -304 71z m149 -239 c17 -10 59 -54 94 -97 35 -44 94 -113 130 -154
112 -127 159 -195 221 -325 80 -168 89 -196 94 -295 l4 -85 -9 86 c-11 98 -22
132 -108 309 -49 100 -78 145 -146 225 -47 55 -119 141 -159 190 -133 163
-163 178 -262 131 -71 -34 -127 -97 -265 -301 -137 -201 -173 -263 -224 -382
-59 -139 -69 -174 -77 -283 l-7 -105 2 110 c2 101 6 118 41 205 20 52 55 131
76 174 46 95 271 432 340 509 84 94 187 130 255 88z m-9 -63 c18 -13 64 -66
104 -118 40 -52 94 -119 121 -149 27 -29 68 -81 92 -115 45 -64 136 -253 155
-321 23 -84 4 -351 -34 -480 -10 -34 -13 -39 -10 -15 43 276 49 376 29 470 -8
37 -42 121 -78 195 -52 104 -82 150 -151 230 -47 55 -110 132 -140 171 -118
155 -166 168 -269 74 -43 -40 -73 -82 -234 -330 -84 -130 -144 -248 -183 -360
-30 -87 -30 -235 0 -375 32 -152 32 -154 11 -90 -31 94 -52 222 -52 316 1 153
62 296 259 604 162 252 223 315 308 315 26 0 52 -8 72 -22z m166 -318 c87 -97
169 -221 163 -245 -3 -12 -1 -34 3 -50 l9 -30 1 27 c1 15 6 30 13 34 8 5 9 -2
4 -27 -4 -19 -9 -46 -9 -61 -1 -18 -13 -34 -36 -50 -19 -13 -37 -30 -39 -38
-5 -13 -3 -13 12 -1 23 19 29 10 34 -52 4 -49 2 -56 -23 -75 -17 -14 -42 -22
-64 -22 -50 0 -121 -38 -148 -79 -24 -35 -30 -56 -14 -47 5 4 12 0 15 -6 4 -7
4 -3 2 10 -2 12 0 20 5 16 5 -3 9 -48 9 -100 0 -61 -4 -93 -10 -89 -5 3 -15 3
-21 -1 -7 -4 -2 -11 13 -18 12 -6 24 -20 26 -31 3 -17 1 -18 -8 -5 -8 12 -9 9
-5 -11 4 -16 1 -30 -9 -38 -12 -10 -17 -5 -30 36 l-16 48 4 -60 c4 -47 3 -53
-4 -30 -11 37 -47 78 -63 72 -7 -2 -13 -12 -15 -23 -2 -15 -1 -16 7 -5 12 19
34 2 51 -40 14 -33 14 -34 -18 -43 -17 -6 -24 -2 -32 16 -10 22 -10 22 -7 -5
7 -43 -10 -41 -17 3 -8 52 -46 96 -72 85 -18 -8 -18 -9 4 -12 28 -5 52 -51 51
-95 l-2 -33 -7 35 -7 35 -2 -32 c-1 -31 -3 -33 -36 -33 l-35 0 0 48 c0 26 -5
54 -11 62 -8 11 -9 -2 -5 -48 l6 -63 -30 21 c-31 22 -33 45 -9 92 15 29 9 34
-11 9 -11 -13 -20 -32 -20 -43 0 -11 -5 -18 -12 -15 -9 3 -13 23 -12 61 1 31
0 56 -2 56 -2 0 -11 -18 -20 -40 -9 -22 -20 -40 -26 -40 -5 0 -8 64 -7 159 1
87 -2 164 -6 171 -5 9 -4 11 4 6 6 -4 18 -21 27 -38 22 -42 29 -27 8 17 -23
49 -64 72 -142 81 -81 8 -102 27 -101 87 1 39 2 40 9 12 7 -29 8 -29 9 -4 0
15 -6 46 -14 69 -8 23 -15 45 -15 47 0 3 7 0 15 -7 17 -14 19 -7 5 20 -9 16
-2 31 34 80 43 58 45 59 39 27 -5 -30 18 -97 33 -97 2 0 -2 13 -11 30 -8 16
-15 35 -15 42 1 7 10 -4 21 -25 21 -40 67 -67 113 -67 14 0 28 -4 31 -10 3 -5
11 -10 16 -10 6 0 7 4 4 10 -3 5 0 7 8 5 7 -3 30 6 51 20 45 31 53 31 84 3
l24 -23 15 23 c9 12 22 22 29 22 20 0 17 17 -6 33 -12 9 -24 32 -28 58 l-8 44
-13 -47 c-17 -59 -35 -78 -46 -46 -8 22 -8 22 -12 -4 -6 -40 -28 -35 -79 17
-28 28 -59 48 -86 55 -29 8 -37 14 -28 20 10 6 6 11 -16 16 -16 4 -32 9 -36
11 -17 9 173 243 196 243 8 0 25 -10 40 -21 21 -16 36 -20 64 -17 l37 5 -4
-43 c-2 -28 1 -44 8 -44 6 0 11 16 11 36 0 36 24 99 42 110 6 4 5 -3 -1 -14
-6 -11 -11 -29 -11 -39 1 -10 7 0 15 21 7 21 19 43 26 47 15 9 59 -28 142
-121z m-429 -276 c7 -17 -10 -54 -24 -54 -24 0 -40 14 -40 36 0 39 50 53 64
18z m803 -356 c-2 -13 -4 -5 -4 17 -1 22 1 32 4 23 2 -10 2 -28 0 -40z m-10
-60 c-3 -7 -5 -2 -5 12 0 14 2 19 5 13 2 -7 2 -19 0 -25z m-1220 -50 c-3 -7
-5 -2 -5 12 0 14 2 19 5 13 2 -7 2 -19 0 -25z m1210 10 c-3 -8 -6 -5 -6 6 -1
11 2 17 5 13 3 -3 4 -12 1 -19z m-10 -40 c-3 -8 -6 -5 -6 6 -1 11 2 17 5 13 3
-3 4 -12 1 -19z m-1190 -10 c-3 -8 -6 -5 -6 6 -1 11 2 17 5 13 3 -3 4 -12 1
-19z m1100 -160 c-3 -8 -6 -5 -6 6 -1 11 2 17 5 13 3 -3 4 -12 1 -19z m-898
-252 c14 -15 59 -51 100 -78 40 -28 120 -87 176 -133 l103 -83 189 126 c103
69 208 141 233 160 l45 34 -40 -37 c-70 -65 -425 -297 -438 -287 -7 5 -57 45
-113 89 -55 43 -135 103 -177 132 -71 49 -114 99 -156 178 -25 48 -9 34 20
-17 17 -30 43 -68 58 -84z m871 60 c0 -2 -8 -10 -17 -17 -16 -13 -17 -12 -4 4
13 16 21 21 21 13z m-513 -153 c12 -32 27 -34 49 -7 13 15 27 24 33 19 18 -11
8 -40 -13 -40 -31 0 -30 -23 1 -27 22 -2 28 -8 28 -28 0 -34 -26 -32 -43 3
-17 35 -42 32 -60 -6 -15 -30 -24 -33 -41 -14 -13 17 5 44 32 49 18 3 20 23 2
23 -24 1 -36 17 -24 31 15 19 28 18 36 -3z"/>
<path d="M2720 3280 c-42 -23 -32 -27 13 -5 l32 16 -24 -21 c-13 -11 -29 -20
-36 -20 -7 0 -32 -16 -55 -35 -23 -19 -48 -35 -56 -35 -8 0 -14 -6 -14 -12 1
-17 27 -64 34 -60 3 1 9 1 14 1 4 -1 36 -1 72 0 47 1 61 -1 50 -8 -8 -6 -10
-11 -5 -11 6 0 25 14 44 32 54 51 78 131 47 157 -26 22 -79 22 -116 1z m18
-93 c2 -12 -3 -17 -17 -17 -12 0 -21 6 -21 13 0 31 32 34 38 4z"/>
<path d="M2710 3190 c0 -5 5 -10 10 -10 6 0 10 5 10 10 0 6 -4 10 -10 10 -5 0
-10 -4 -10 -10z"/>
<path d="M2461 3034 c-32 -41 -47 -99 -32 -126 8 -15 10 -17 6 -4 -5 16 -3 17
10 6 18 -15 45 -6 45 15 0 8 5 15 10 15 6 0 10 -6 10 -13 0 -7 9 -20 20 -29
19 -17 20 -16 31 22 11 35 9 44 -13 87 -29 58 -56 66 -87 27z"/>
<path d="M2295 3207 c-4 -10 -5 -21 -1 -24 10 -10 18 4 13 24 -4 17 -4 17 -12
0z"/>
<path d="M1386 4074 c-11 -28 -6 -43 15 -55 18 -9 25 -7 41 9 16 16 18 23 9
41 -14 25 -56 28 -65 5z"/>
<path d="M3550 4075 c-14 -17 -5 -51 16 -59 22 -8 54 11 54 32 0 38 -46 56
-70 27z"/>
<path d="M1791 1694 c0 -11 3 -14 6 -6 3 7 2 16 -1 19 -3 4 -6 -2 -5 -13z"/>
<path d="M1364 1609 c-19 -31 -32 -108 -24 -142 11 -49 12 -50 47 -43 21 5 32
16 40 39 19 54 23 91 15 122 -7 24 -14 30 -40 31 -18 1 -35 -2 -38 -7z"/>
<path d="M3223 1434 c-3 -8 -1 -20 4 -25 5 -5 7 -24 4 -42 l-5 -32 -7 30 c-5
24 -7 19 -8 -25 -1 -51 0 -53 16 -37 12 12 18 36 19 82 2 61 -9 85 -23 49z"/>
<path d="M1952 756 c7 -8 16 -12 21 -9 11 7 -2 23 -19 23 -12 0 -12 -2 -2 -14z"/>
<path d="M2120 660 c0 -5 5 -10 10 -10 6 0 10 5 10 10 0 6 -4 10 -10 10 -5 0
-10 -4 -10 -10z"/>
<path d="M3107 763 c-13 -13 -7 -21 13 -16 11 3 17 9 14 14 -6 11 -18 12 -27
2z"/>
</g>
</svg>
